<svg xmlns="http://www.w3.org/2000/svg" xmlns:xlink="http://www.w3.org/1999/xlink" viewBox="0 0 277.73 285.74"><defs><style>.cls-1{fill:url(#Degradado_sin_nombre_20);}.cls-2{fill:url(#Degradado_sin_nombre_20-2);}.cls-3{fill:url(#Degradado_sin_nombre_20-3);}.cls-4{fill:url(#Degradado_sin_nombre_20-4);}.cls-5{fill:url(#Degradado_sin_nombre_20-5);}.cls-6{fill:url(#Degradado_sin_nombre_20-6);}.cls-7{fill:url(#Degradado_sin_nombre_20-7);}.cls-8{fill:url(#Degradado_sin_nombre_20-8);}.cls-9{fill:url(#Degradado_sin_nombre_20-9);}.cls-10{fill:url(#Degradado_sin_nombre_20-10);}.cls-11{fill:url(#Degradado_sin_nombre_20-11);}.cls-12{fill:url(#Degradado_sin_nombre_20-12);}.cls-13{fill:url(#Degradado_sin_nombre_20-13);}.cls-14{fill:url(#Degradado_sin_nombre_20-14);}.cls-15{fill:url(#Degradado_sin_nombre_20-15);}.cls-16{fill:url(#Degradado_sin_nombre_20-16);}.cls-17{fill:url(#Degradado_sin_nombre_20-17);}.cls-18{fill:url(#Degradado_sin_nombre_20-18);}.cls-19{fill:url(#Degradado_sin_nombre_20-19);}.cls-20{fill:url(#Degradado_sin_nombre_20-20);}.cls-21{fill:url(#Degradado_sin_nombre_20-21);}.cls-22{fill:url(#Degradado_sin_nombre_20-22);}.cls-23{fill:url(#Degradado_sin_nombre_20-23);}.cls-24{fill:url(#Degradado_sin_nombre_20-24);}.cls-25{fill:url(#Degradado_sin_nombre_20-25);}.cls-26{fill:url(#Degradado_sin_nombre_20-26);}.cls-27{fill:url(#Degradado_sin_nombre_20-27);}.cls-28{font-size:177.25px;fill:#a99c6c;font-family:PublicoHeadline-Roman, Publico Headline;}</style><linearGradient id="Degradado_sin_nombre_20" x1="97.32" y1="-14.83" x2="98.85" y2="301.83" gradientUnits="userSpaceOnUse"><stop offset="0" stop-color="#a99b67"/><stop offset="0.58" stop-color="#d8c893"/><stop offset="1" stop-color="#a0935f"/></linearGradient><linearGradient id="Degradado_sin_nombre_20-2" x1="152.57" y1="-15.09" x2="154.1" y2="301.57" xlink:href="#Degradado_sin_nombre_20"/><linearGradient id="Degradado_sin_nombre_20-3" x1="49.52" y1="-14.6" x2="51.05" y2="302.07" xlink:href="#Degradado_sin_nombre_20"/><linearGradient id="Degradado_sin_nombre_20-4" x1="218.69" y1="-15.41" x2="220.22" y2="301.25" xlink:href="#Degradado_sin_nombre_20"/><linearGradient id="Degradado_sin_nombre_20-5" x1="239.67" y1="-15.51" x2="241.2" y2="301.15" xlink:href="#Degradado_sin_nombre_20"/><linearGradient id="Degradado_sin_nombre_20-6" x1="235.74" y1="-15.5" x2="237.27" y2="301.17" xlink:href="#Degradado_sin_nombre_20"/><linearGradient id="Degradado_sin_nombre_20-7" x1="232.52" y1="-15.48" x2="234.05" y2="301.18" xlink:href="#Degradado_sin_nombre_20"/><linearGradient id="Degradado_sin_nombre_20-8" x1="186.42" y1="-15.26" x2="187.95" y2="301.4" xlink:href="#Degradado_sin_nombre_20"/><linearGradient id="Degradado_sin_nombre_20-9" x1="194.64" y1="-15.3" x2="196.17" y2="301.36" xlink:href="#Degradado_sin_nombre_20"/><linearGradient id="Degradado_sin_nombre_20-10" x1="192.92" y1="-15.29" x2="194.45" y2="301.37" xlink:href="#Degradado_sin_nombre_20"/><linearGradient id="Degradado_sin_nombre_20-11" x1="260.46" y1="-15.61" x2="261.99" y2="301.05" xlink:href="#Degradado_sin_nombre_20"/><linearGradient id="Degradado_sin_nombre_20-12" x1="227.32" y1="-15.45" x2="228.85" y2="301.21" xlink:href="#Degradado_sin_nombre_20"/><linearGradient id="Degradado_sin_nombre_20-13" x1="233.26" y1="-15.48" x2="234.79" y2="301.18" xlink:href="#Degradado_sin_nombre_20"/><linearGradient id="Degradado_sin_nombre_20-14" x1="261.69" y1="-15.62" x2="263.22" y2="301.04" xlink:href="#Degradado_sin_nombre_20"/><linearGradient id="Degradado_sin_nombre_20-15" x1="94.1" y1="-14.81" x2="95.63" y2="301.85" xlink:href="#Degradado_sin_nombre_20"/><linearGradient id="Degradado_sin_nombre_20-16" x1="88.46" y1="-14.78" x2="89.99" y2="301.88" xlink:href="#Degradado_sin_nombre_20"/><linearGradient id="Degradado_sin_nombre_20-17" x1="85.55" y1="-14.77" x2="87.08" y2="301.89" xlink:href="#Degradado_sin_nombre_20"/><linearGradient id="Degradado_sin_nombre_20-18" x1="19.75" y1="-14.45" x2="21.28" y2="302.21" xlink:href="#Degradado_sin_nombre_20"/><linearGradient id="Degradado_sin_nombre_20-19" x1="16.07" y1="-14.43" x2="17.6" y2="302.23" xlink:href="#Degradado_sin_nombre_20"/><linearGradient id="Degradado_sin_nombre_20-20" x1="13.72" y1="-14.42" x2="15.25" y2="302.24" xlink:href="#Degradado_sin_nombre_20"/><linearGradient id="Degradado_sin_nombre_20-21" x1="7.17" y1="-14.39" x2="8.7" y2="302.27" xlink:href="#Degradado_sin_nombre_20"/><linearGradient id="Degradado_sin_nombre_20-22" x1="21.19" y1="-14.46" x2="22.72" y2="302.2" xlink:href="#Degradado_sin_nombre_20"/><linearGradient id="Degradado_sin_nombre_20-23" x1="33.44" y1="-14.52" x2="34.97" y2="302.14" xlink:href="#Degradado_sin_nombre_20"/><linearGradient id="Degradado_sin_nombre_20-24" x1="35.47" y1="-14.53" x2="36.99" y2="302.13" xlink:href="#Degradado_sin_nombre_20"/><linearGradient id="Degradado_sin_nombre_20-25" x1="26.81" y1="-14.49" x2="28.34" y2="302.17" xlink:href="#Degradado_sin_nombre_20"/><linearGradient id="Degradado_sin_nombre_20-26" x1="166.84" y1="-15.16" x2="168.37" y2="301.5" xlink:href="#Degradado_sin_nombre_20"/><linearGradient id="Degradado_sin_nombre_20-27" x1="88.43" y1="-14.78" x2="89.96" y2="301.88" xlink:href="#Degradado_sin_nombre_20"/></defs><g id="Layer_2" data-name="Layer 2"><g id="OBJECTS"><path class="cls-1" d="M179.37,59.36A110,110,0,0,0,20.94,189.43c.37.09.73.2,1.1.32A109.07,109.07,0,0,1,180.29,61C180,60.45,179.66,59.91,179.37,59.36Z"/><path class="cls-2" d="M228.19,192.5A109,109,0,0,1,78.4,253.73c.18.42.34.85.5,1.27A110,110,0,0,0,229,192.91C228.76,192.77,228.48,192.62,228.19,192.5Z"/><path class="cls-3" d="M80.45,272a22.13,22.13,0,0,1-.5,2.22c-1.15,4.23-3.55,8.21-7.39,10.25a12.3,12.3,0,0,1-14.16-2.38A5.14,5.14,0,0,0,62,283.35a4.5,4.5,0,0,0,4.17-3.91,6,6,0,0,0-2.08-4.52c-3.77-3.71-9.54-4.29-14.82-4.35s-10.91.1-15.43-2.63a13.41,13.41,0,0,1-5.09-17.43,20.85,20.85,0,0,1-5,3.75c-.89.48-2,.88-2.87.31,2.43-1.2,3.83-3.9,4.61-6.54a25.68,25.68,0,0,0-.14-14.66c.47,1.32,6.06,15.54,27.35,25.62-10.47-7.69-18.8-18.59-26.45-29.09h0c2.48,3.21,5.92,6.41,10.06,6.72,4.71.36,9.44-.59,14.18-.68s9.82.9,13.08,4.33a16.47,16.47,0,0,0-9.74.78,16.51,16.51,0,0,0-7.36,6.78h0a19.55,19.55,0,0,1,16.61-4.07A22.39,22.39,0,0,1,77.4,254.31,26.32,26.32,0,0,1,80.45,272Z"/><path class="cls-4" d="M246.11,87.3l.23.2c-3.28,3.87-4.43,9.92-5.34,14.91h0a74.41,74.41,0,0,0-24.82-34.22l-.07.07a3.71,3.71,0,0,1-.27-.29l-.09.08c9.05,11,17,22.7,22.88,35.69-.23-.41-.47-.81-.71-1.21-3.69-6-8.65-11-13.73-15.94A28.57,28.57,0,0,0,217,81.14a12.36,12.36,0,0,0-8.79-1,8,8,0,0,0-5.74,6l-.31-.06a14.11,14.11,0,0,1,5.16-16.92v0c-7.42,1.23-15.69.57-21.41-4.3-4.86-4.13-7.12-10.71-7.22-17.07a35.13,35.13,0,0,1,.41-5.8,66.64,66.64,0,0,1,3.48-12.8c2.18-6,4.7-11.88,6.09-18.1.83-3.7,1-8.08-1.44-10.86l.23-.19A30.36,30.36,0,0,1,208.4,21.79c1,4.19,1,8.53,1.23,12.83s.49,8.65,1.94,12.71,4,7.64,7.77,9.51a29.49,29.49,0,0,1,.43-26.7,14.14,14.14,0,0,0,2.77,9.59c2.35,3.34,5.65,5.88,8.82,8.44s6.36,5.3,8.34,8.88A12.64,12.64,0,0,1,241,67a14.06,14.06,0,0,1,18.44,1.5,22.19,22.19,0,0,0-16.63,8.57c-3.84,5-4.1,13.82-2.78,20a23,23,0,0,1,1.21-7.22C241.82,88.08,244.23,87.54,246.11,87.3Z"/><path class="cls-5" d="M239.91,42.67a3.1,3.1,0,1,1-3,3.15A3.09,3.09,0,0,1,239.91,42.67Z"/><path class="cls-6" d="M236,37.47a.94.94,0,0,1,1,.92.93.93,0,1,1-1-.92Z"/><path class="cls-7" d="M232.77,40.44a1.53,1.53,0,1,1,.06,3.06,1.53,1.53,0,1,1-.06-3.06Z"/><path class="cls-8" d="M186.84,78.64a2.81,2.81,0,1,1-2.75,2.87A2.8,2.8,0,0,1,186.84,78.64Z"/><circle class="cls-9" cx="195.11" cy="81.7" r="2.39"/><path class="cls-10" d="M193.32,72.83a1.78,1.78,0,1,1-1.74,1.81A1.78,1.78,0,0,1,193.32,72.83Z"/><path class="cls-11" d="M257.3,89.58A30.88,30.88,0,0,0,249.63,120l-4.27-13.09c-.81-2.49-1.63-5.22-.7-7.68s3.42-4,4.71-6.35c1.7-3,1.1-6.87,2.37-10.11,1.92-4.92,8-7.32,13.14-6.37s9.55,4.56,12.85,8.68l-.08.14a6,6,0,0,0-5.17-.23A6,6,0,0,0,269,89.36c-.4,2.09.35,4.2.89,6.26s.87,4.39-.26,6.2c-1.56,2.51-5,2.81-7.8,3.66a16.08,16.08,0,0,0-10.18,9.46c-.07.19-.14.39-.2.58a42.72,42.72,0,0,1,6.15-25.65Z"/><path class="cls-12" d="M244.76,125a33.65,33.65,0,0,1,.16,9.08,15,15,0,0,0-11.52-11.38c-2.32-.43-4.72-.28-7.05-.63s-4.77-1.33-6-3.34c-1-1.56-1.11-3.62-2.44-4.87a4.74,4.74,0,0,0-3.71-1,12.76,12.76,0,0,0-3.39,1,11.55,11.55,0,0,1,20.59-4.7c1.07,1.44,1.82,3.14,3.18,4.31s3,1.65,4.51,2.55C242.24,117.85,244.08,121.39,244.76,125Z"/><path class="cls-13" d="M228.79,186a7.69,7.69,0,0,1,14.45-1.19h0c.14-2.85-1.68-5.54-3.89-7.42s-5.18-3.39-7.53-5.39-4.19-4.75-3.92-7.72c2.28,1.16,5,1.23,7.58,1.37,2.86.15,6,.52,8.07,2.47l.11,0c-.72-3.73-4.6-5.92-8.21-7.09s-7.63-2-10.18-4.78-3-6.91-2.68-10.67,1.19-7.5.85-11.26-2.32-7.71-5.89-8.92v-.64a32.93,32.93,0,0,1,29.36,18.76c3,6.57,3.73,14,3.55,21.18a91.84,91.84,0,0,1-5.28,28.42h0a56.21,56.21,0,0,1-7.48,15.81,11.69,11.69,0,0,1-1.18-6.81c.2-2.4.73-4.78.83-7.18a10.32,10.32,0,0,0-1.83-6.84c-1.5-1.89-4.3-2.87-6.44-1.75Z"/><path class="cls-14" d="M273.6,170.88a3.42,3.42,0,0,1-1,3.4l-.13-.2c-1.25-2.36-4.41-3.06-7-2.53-3.84.76-7.06,3.51-9.19,6.78a35.56,35.56,0,0,0-4.63,9.16h0a113,113,0,0,0,.43-58.67,43.49,43.49,0,0,1,7.26,13.38l.21-.07a29.82,29.82,0,0,1,11.43-33.82l.11,0c-2.47,5.82-1.19,12.5-.09,18.75s1.88,13.33-1.53,18.78c-2.67,4.25-7.68,7.15-8.81,12l.6-.07a11.87,11.87,0,0,1,10.08-5.39v.06A37.39,37.39,0,0,0,262.72,165l.21.08a7.7,7.7,0,0,1,10.67,5.82Z"/><path class="cls-15" d="M95.48,268.26a3.34,3.34,0,1,1-3.32,3.33A3.33,3.33,0,0,1,95.48,268.26Z"/><path class="cls-16" d="M89.79,260.53a1.68,1.68,0,1,1-1.67,1.67A1.67,1.67,0,0,1,89.79,260.53Z"/><path class="cls-17" d="M86.93,266.05a2.72,2.72,0,1,1-2.73,2.72A2.71,2.71,0,0,1,86.93,266.05Z"/><circle class="cls-18" cx="21.08" cy="262.37" r="1.89"/><path class="cls-19" d="M17.38,254.84A1.38,1.38,0,1,1,16,256.22,1.38,1.38,0,0,1,17.38,254.84Z"/><path class="cls-20" d="M15,259a2.11,2.11,0,1,1-2.1,2.1A2.11,2.11,0,0,1,15,259Z"/><path class="cls-21" d="M14.82,228.82c.37,4.7,0,9.58-2.11,13.8s-6.16,7.66-10.85,8.09h0c2.19-.87,2.95-3.69,2.57-6s-1.57-4.49-2-6.83a11.59,11.59,0,0,1,1.73-8.67c1.71-2.55,4.4-4.34,6.05-6.93a10.75,10.75,0,0,0,1.58-6.89A46.84,46.84,0,0,1,14.82,228.82Z"/><path class="cls-22" d="M6.4,183.78c.55,2.9,3.28,5.05,6.1,6.08,3,1.09,6.23,1.31,9.24,2.33a18.19,18.19,0,0,1,8.89,6.65c1.12,1.59,2,3.35,3.12,4.92a8.48,8.48,0,0,0,4.5,3.41c-6.92,2.76-15.24,1-21.12-3.64-6-4.75-9.68-12.13-11-19.71Z"/><path class="cls-23" d="M34.61,224.89a1.29,1.29,0,1,1-1.3,1.29A1.3,1.3,0,0,1,34.61,224.89Z"/><circle class="cls-24" cx="36.58" cy="217.24" r="1.98"/><circle class="cls-25" cx="27.93" cy="217.24" r="4.4"/><path class="cls-26" d="M81.77,274.93a128.44,128.44,0,0,0,81.46,2,127.58,127.58,0,0,0,76.06-65.31A127,127,0,0,0,222.75,75.54a124.37,124.37,0,0,1,22.07,35.26,125.57,125.57,0,0,1-13.77,120.13A125.42,125.42,0,0,1,217.49,247a129.92,129.92,0,0,1-16,13.6,123.52,123.52,0,0,1-37.6,18.4,122.23,122.23,0,0,1-20.56,4.16,126.11,126.11,0,0,1-20.92.77A123.92,123.92,0,0,1,81.77,274.93Z"/><path class="cls-27" d="M178,42.23a127.85,127.85,0,0,0-88.86-3.69,125.67,125.67,0,0,0-69,55.29A122.93,122.93,0,0,0,4.4,135.89a129.26,129.26,0,0,0-1.95,22.48c0,3.77.21,7.53.56,11.29s.84,7.49,1.5,11.2a123.7,123.7,0,0,0,16,42.15c7.66,13.06,16.07,23.64,27.88,33.21-6.1-4.54-10-8.71-15.13-14.33A120.5,120.5,0,0,1,19.3,223.73,124.72,124.72,0,0,1,2.37,181.27,122.09,122.09,0,0,1,0,158.39a132.56,132.56,0,0,1,1.86-22.94A125.27,125.27,0,0,1,17.68,92.38C33.48,66,59.05,45.5,88.45,36.47A128.78,128.78,0,0,1,133.84,31,124.17,124.17,0,0,1,178,42.23Z"/><text class="cls-28" transform="translate(54.28 224.89)">M</text></g></g></svg>